<svg xmlns="http://www.w3.org/2000/svg" id="Layer_2" data-name="Layer 2" viewBox="0 0 940.23 608.02"><defs><style>      .cls-1 {        fill: #5e20b3;      }    </style></defs><g id="Layer_1-2" data-name="Layer 1"><path class="cls-1" d="M905.19,195.39C850.35,36.03,753.08-20.8,673.43,6.61c-28.28,9.73-52.15,47.58-68.74,71.72-7.32,10.66-19.35,17.11-32.28,17.11h-204.59c-12.93,0-24.96-6.45-32.28-17.11-16.59-24.14-40.47-61.99-68.74-71.72C187.16-20.8,89.88,36.03,35.05,195.39c-54.83,159.35-46.47,382.42,33.18,409.82,45.77,15.75,109.4-36.55,165.64-114.14,35.06-48.36,91.04-77.13,150.77-77.13h170.95c59.73,0,115.72,28.77,150.77,77.13,56.24,77.59,119.87,129.89,165.64,114.14,79.65-27.41,88.02-250.47,33.18-409.82ZM332.77,266.87c0,11.95-9.69,21.64-21.64,21.64h-58.81v58.81c0,11.95-9.69,21.64-21.64,21.64h-40.09c-11.95,0-21.64-9.69-21.64-21.64v-58.81h-58.81c-11.95,0-21.64-9.69-21.64-21.64v-40.09c0-11.95,9.69-21.64,21.64-21.64h58.81v-58.81c0-11.95,9.69-21.64,21.64-21.64h40.09c11.95,0,21.64,9.69,21.64,21.64v58.81h58.81c11.95,0,21.64,9.69,21.64,21.64v40.09ZM539.12,353.53c0,12.16-9.86,22.02-22.02,22.02h-97.49c-12.16,0-22.02-9.86-22.02-22.02h0c0-12.16,9.86-22.02,22.02-22.02h97.49c12.16,0,22.02,9.86,22.02,22.02h0ZM619.28,291.16c-24.48,0-44.33-19.85-44.33-44.33s19.85-44.33,44.33-44.33,44.33,19.85,44.33,44.33-19.85,44.33-44.33,44.33ZM724.18,374.9c-24.48,0-44.33-19.85-44.33-44.33s19.85-44.33,44.33-44.33,44.33,19.85,44.33,44.33-19.85,44.33-44.33,44.33ZM724.18,207.41c-24.48,0-44.33-19.85-44.33-44.33s19.85-44.33,44.33-44.33,44.33,19.85,44.33,44.33-19.85,44.33-44.33,44.33ZM831.3,291.16c-24.48,0-44.33-19.85-44.33-44.33s19.85-44.33,44.33-44.33,44.33,19.85,44.33,44.33-19.85,44.33-44.33,44.33Z"></path></g></svg>